<?xml version="1.0" encoding="UTF-8"?>
<svg id="_レイヤー_2" data-name="レイヤー_2" xmlns="http://www.w3.org/2000/svg" viewBox="0 0 300.03 215.34">
  <defs>
    <style>
      .cls-1 {
        fill: none;
        stroke: #2c82a6;
        stroke-miterlimit: 10;
      }
    </style>
  </defs>
  <g id="layout">
    <g>
      <path class="cls-1" d="M298.47,187.11l-26.39-33.48V12.83c0-6.81-5.52-12.33-12.33-12.33H40.28c-6.81,0-12.33,5.52-12.33,12.33v140.8L1.56,187.11c-.69.87-1.06,1.95-1.06,3.06v14.83c0,5.43,4.41,9.84,9.84,9.84h279.35c5.43,0,9.84-4.41,9.84-9.84v-14.82c0-1.12-.37-2.2-1.06-3.07ZM45.47,18.02h209.09v118.56H45.47V18.02ZM178.05,203.16h-56.07v-14.6h56.07v14.6Z"/>
      <path class="cls-1" d="M119.9,55.78c-.07,0-.13.02-.18.06l-33.81,23.08c-.09.07-.14.16-.14.27v6.2c0,.11.05.21.14.27l33.81,23.08c.05.04.11.06.18.06.05,0,.1-.02.15-.04.11-.06.18-.17.18-.29v-9.89c0-.1-.05-.21-.14-.27l-23.47-16.03,23.47-16.02c.09-.07.14-.16.14-.27v-9.88c0-.12-.07-.24-.18-.29-.05-.03-.1-.04-.15-.04Z"/>
      <path class="cls-1" d="M179.14,55.84c-.05-.04-.11-.06-.18-.06-.05,0-.1.01-.15.04-.1.05-.17.17-.17.29v9.89c0,.11.05.21.14.27l23.47,16.02-23.47,16.02c-.09.06-.14.17-.14.27v9.88c0,.12.07.23.17.29.05.03.1.04.15.04.07,0,.13-.02.18-.06l33.8-23.08c.1-.06.15-.16.15-.27v-6.2c0-.11-.05-.21-.15-.28l-33.8-23.08Z"/>
      <path class="cls-1" d="M164.79,50.73h-9.39c-.14,0-.26.09-.3.22l-21.33,61.85c-.03.1-.02.21.04.29.06.09.16.14.27.14h9.39c.14,0,.26-.09.31-.22l21.33-61.84c.04-.1.02-.21-.04-.3-.06-.09-.16-.14-.27-.14Z"/>
    </g>
  </g>
</svg>