<?xml version="1.0" encoding="UTF-8"?>
<svg id="_レイヤー_2" data-name="レイヤー_2" xmlns="http://www.w3.org/2000/svg" viewBox="0 0 35 35">
  <defs>
    <style>
      .cls-1 {
        fill: #f9f7f7;
      }
    </style>
  </defs>
  <g id="layout">
    <path class="cls-1" d="M10.25.12c-1.86.09-3.13.39-4.25.82-1.15.45-2.13,1.05-3.1,2.02-.97.97-1.57,1.95-2.01,3.1-.43,1.11-.72,2.39-.81,4.25C.01,12.18,0,12.78,0,17.53s.03,5.35.12,7.21c.09,1.86.39,3.13.82,4.24.45,1.15,1.05,2.13,2.02,3.1.97.97,1.95,1.57,3.1,2.01,1.11.43,2.39.72,4.25.81,1.86.08,2.46.1,7.21.09,4.75,0,5.35-.03,7.22-.12,1.87-.09,3.13-.39,4.24-.82,1.15-.45,2.13-1.05,3.1-2.02s1.57-1.95,2.01-3.1c.43-1.11.72-2.39.81-4.25.08-1.87.1-2.46.09-7.22,0-4.75-.03-5.35-.12-7.21s-.39-3.13-.82-4.25c-.45-1.15-1.05-2.12-2.02-3.1s-1.95-1.57-3.1-2.01c-1.11-.43-2.39-.72-4.25-.81C22.82.01,22.22,0,17.47,0c-4.75,0-5.35.03-7.21.12M10.46,31.76c-1.71-.07-2.63-.36-3.25-.6-.82-.32-1.4-.7-2.02-1.31s-.99-1.19-1.31-2.01c-.24-.62-.53-1.54-.61-3.25-.09-1.84-.11-2.4-.12-7.07s0-5.23.09-7.07c.07-1.7.36-2.63.6-3.25.32-.82.69-1.4,1.31-2.01s1.19-.99,2.01-1.31c.62-.24,1.54-.53,3.25-.61,1.85-.09,2.4-.11,7.07-.12,4.67-.01,5.23,0,7.07.09,1.7.07,2.63.36,3.25.6.82.32,1.4.69,2.01,1.31s.99,1.19,1.31,2.01c.24.61.53,1.54.61,3.25.09,1.85.11,2.4.12,7.07,0,4.67,0,5.23-.09,7.07-.07,1.71-.36,2.63-.6,3.25-.32.82-.69,1.4-1.31,2.01s-1.19.99-2.01,1.31c-.62.24-1.54.53-3.25.61-1.85.09-2.4.11-7.07.12-4.67.01-5.22,0-7.07-.09M24.72,8.16c0,1.19,1,2.15,2.2,2.09,1.08-.05,1.95-.93,2-2,.05-1.21-.91-2.2-2.1-2.2,0,0,0,0,0,0-1.16,0-2.1.94-2.1,2.1M8.51,17.52c0,4.96,4.04,8.98,9,8.97s8.98-4.04,8.97-9-4.04-8.98-9-8.97-8.98,4.04-8.97,9M11.68,17.51c0-3.62,3.29-6.48,7.05-5.72,2.04.41,4.08,2.44,4.49,4.48.77,3.76-2.07,7.06-5.7,7.07-3.22,0-5.84-2.6-5.85-5.82,0,0,0,0,0,0"/>
  </g>
</svg>