<?xml version="1.0" encoding="UTF-8"?>
<svg id="_レイヤー_2" data-name="レイヤー_2" xmlns="http://www.w3.org/2000/svg" viewBox="0 0 85.98 87">
  <defs>
    <style>
      .cls-1 {
        fill: none;
      }

      .cls-2 {
        fill: #000001;
      }

      .cls-3 {
        fill: #ffd600;
      }
    </style>
  </defs>
  <g id="layout">
    <g>
      <g>
        <path class="cls-3" d="M12.99,73.5V13.5h60v60H12.99Z"/>
        <path class="cls-2" d="M52.1,58.26c1.15,1.87,2.41,3.67,5.06,3.67,2.23,0,3.4-1.11,3.4-2.64,0-1.84-1.21-2.49-3.66-3.55l-1.34-.57c-3.88-1.65-6.46-3.71-6.46-8.07,0-4.02,3.07-7.07,7.88-7.07,3.42,0,5.88,1.19,7.65,4.29l-4.19,2.68c-.92-1.65-1.92-2.3-3.46-2.3s-2.58,1-2.58,2.3c0,1.61,1,2.26,3.31,3.25l1.34.57c4.58,1.95,7.16,3.94,7.16,8.41,0,4.82-3.81,7.46-8.92,7.46s-7.84-2.51-9.42-5.61l4.23-2.81ZM33.58,58.55c.76,1.51,1.91,2.67,3.57,2.67s2.5-.7,2.5-3.4v-17.65h5v18.5c0,5.61-2.93,8.17-7.21,8.17-3.87,0-6.66-2.91-7.79-5.61l3.93-2.67Z"/>
      </g>
      <rect class="cls-1" width="85.98" height="87"/>
    </g>
  </g>
</svg>