<?xml version="1.0" encoding="UTF-8"?>
<svg id="_レイヤー_2" data-name="レイヤー_2" xmlns="http://www.w3.org/2000/svg" viewBox="0 0 271 210.88">
  <defs>
    <style>
      .cls-1 {
        fill: none;
        stroke: #2c82a6;
        stroke-miterlimit: 10;
      }
    </style>
  </defs>
  <g id="layout">
    <g>
      <path class="cls-1" d="M135.46,89c-18.11,0-32.78,14.81-32.78,33.07s14.67,33.07,32.78,33.07,32.78-14.81,32.78-33.07-14.67-33.07-32.78-33.07Z"/>
      <path class="cls-1" d="M252.97,42.16h-30.81c-6.91,0-13.17-4.09-16.01-10.45l-9.27-20.77c-2.83-6.35-9.1-10.44-16.01-10.44h-90.85c-6.91,0-13.18,4.09-16.02,10.44l-9.26,20.77c-2.83,6.36-9.1,10.45-16.01,10.45h-30.72c-9.68,0-17.53,7.91-17.53,17.65v132.91c0,9.74,7.84,17.65,17.53,17.65h234.95c9.67,0,17.53-7.91,17.53-17.65V59.81c0-9.74-7.85-17.65-17.53-17.65ZM135.46,183.41c-33.59,0-60.8-27.46-60.8-61.33s27.22-61.34,60.8-61.34,60.8,27.46,60.8,61.34-27.22,61.33-60.8,61.33Z"/>
    </g>
  </g>
</svg>