<?xml version="1.0" encoding="UTF-8"?>
<svg id="_レイヤー_2" data-name="レイヤー_2" xmlns="http://www.w3.org/2000/svg" viewBox="0 0 244 220.92">
  <defs>
    <style>
      .cls-1 {
        fill: none;
        stroke: #2c82a6;
        stroke-miterlimit: 10;
      }
    </style>
  </defs>
  <g id="layout">
    <path class="cls-1" d="M19.26.5C8.93.58.58,8.91.5,19.21v182.49c.08,10.3,8.43,18.63,18.76,18.71h205.48c10.33-.08,18.69-8.41,18.76-18.71V19.21c-.08-10.3-8.43-18.64-18.76-18.71H19.26ZM166.5,15.09c4.19,0,7.59,3.4,7.59,7.59,0,4.19-3.4,7.59-7.59,7.59-4.19,0-7.59-3.4-7.59-7.59,0-4.19,3.4-7.59,7.59-7.59h0ZM191.58,15.08c5.03,0,8.91,4.89,7.16,10.17-.7,2.1-2.36,3.81-4.45,4.54-6.48,2.26-12.42-4-9.56-10.51,1.14-2.59,3.77-4.2,6.59-4.2h.26s0,0,0,0ZM216.67,15.08c5.03,0,8.91,4.89,7.16,10.17-.7,2.1-2.36,3.81-4.45,4.54-6.48,2.26-12.42-4-9.56-10.51,1.14-2.59,3.77-4.2,6.59-4.2h.26s0,0,0,0ZM16.3,45.46h211.4v157.69c.09,1.39-.96,2.59-2.34,2.69-.11,0-.23,0-.34,0H18.98c-1.39.09-2.59-.96-2.69-2.35,0-.11,0-.23,0-.34V45.46ZM142.66,68.54v46.17h59.54v-46.17h-59.54ZM41.81,74.62v9.72h78.98v-9.72H41.81ZM41.81,106.2v9.72h78.98v-9.72H41.81ZM43.03,136.58v9.72h156.74v-9.72H43.03ZM43.03,168.17v9.72h156.74v-9.72H43.03Z"/>
  </g>
</svg>